<svg width="17" height="17" viewBox="0 0 17 17" fill="none" xmlns="http://www.w3.org/2000/svg">
<path d="M2.65625 2.125C2.51535 2.125 2.38023 2.18097 2.2806 2.2806C2.18097 2.38023 2.125 2.51535 2.125 2.65625C2.125 2.79715 2.18097 2.93227 2.2806 3.0319C2.38023 3.13153 2.51535 3.1875 2.65625 3.1875H2.91763C3.03298 3.1877 3.14514 3.22544 3.23715 3.29502C3.32916 3.36461 3.39602 3.46225 3.42763 3.57319L5.11275 9.47006C5.20806 9.80284 5.40912 10.0955 5.68555 10.3039C5.96197 10.5123 6.29871 10.625 6.64488 10.625H11.4994C11.818 10.6251 12.1293 10.5296 12.3931 10.351C12.657 10.1724 12.8612 9.91887 12.9795 9.62306L14.5456 5.70669C14.61 5.54553 14.6339 5.37106 14.6153 5.19853C14.5967 5.02599 14.5361 4.86064 14.4388 4.71693C14.3416 4.57321 14.2106 4.45552 14.0573 4.37412C13.904 4.29272 13.7332 4.25011 13.5596 4.25H4.726L4.44869 3.281C4.35362 2.9482 4.1528 2.65539 3.87657 2.44683C3.60035 2.23827 3.26374 2.1253 2.91763 2.125H2.65625ZM6.13488 9.17681L5.02988 5.3125H13.5596L11.9924 9.22887C11.953 9.32736 11.8849 9.41176 11.7971 9.47122C11.7092 9.53068 11.6055 9.56248 11.4994 9.5625H6.64488C6.52952 9.5623 6.41736 9.52456 6.32535 9.45498C6.23334 9.38539 6.16648 9.28775 6.13488 9.17681ZM6.90625 14.875C7.11554 14.875 7.32279 14.8338 7.51615 14.7537C7.70951 14.6736 7.88521 14.5562 8.0332 14.4082C8.1812 14.2602 8.29859 14.0845 8.37868 13.8912C8.45878 13.6978 8.5 13.4905 8.5 13.2812C8.5 13.072 8.45878 12.8647 8.37868 12.6713C8.29859 12.478 8.1812 12.3023 8.0332 12.1543C7.88521 12.0063 7.70951 11.8889 7.51615 11.8088C7.32279 11.7287 7.11554 11.6875 6.90625 11.6875C6.48356 11.6875 6.07818 11.8554 5.7793 12.1543C5.48041 12.4532 5.3125 12.8586 5.3125 13.2812C5.3125 13.7039 5.48041 14.1093 5.7793 14.4082C6.07818 14.7071 6.48356 14.875 6.90625 14.875ZM6.90625 13.8125C6.76535 13.8125 6.63023 13.7565 6.5306 13.6569C6.43097 13.5573 6.375 13.4221 6.375 13.2812C6.375 13.1404 6.43097 13.0052 6.5306 12.9056C6.63023 12.806 6.76535 12.75 6.90625 12.75C7.04715 12.75 7.18227 12.806 7.2819 12.9056C7.38153 13.0052 7.4375 13.1404 7.4375 13.2812C7.4375 13.4221 7.38153 13.5573 7.2819 13.6569C7.18227 13.7565 7.04715 13.8125 6.90625 13.8125ZM11.1562 14.875C11.3655 14.875 11.5728 14.8338 11.7662 14.7537C11.9595 14.6736 12.1352 14.5562 12.2832 14.4082C12.4312 14.2602 12.5486 14.0845 12.6287 13.8912C12.7088 13.6978 12.75 13.4905 12.75 13.2812C12.75 13.072 12.7088 12.8647 12.6287 12.6713C12.5486 12.478 12.4312 12.3023 12.2832 12.1543C12.1352 12.0063 11.9595 11.8889 11.7662 11.8088C11.5728 11.7287 11.3655 11.6875 11.1562 11.6875C10.7336 11.6875 10.3282 11.8554 10.0293 12.1543C9.73041 12.4532 9.5625 12.8586 9.5625 13.2812C9.5625 13.7039 9.73041 14.1093 10.0293 14.4082C10.3282 14.7071 10.7336 14.875 11.1562 14.875ZM11.1562 13.8125C11.0154 13.8125 10.8802 13.7565 10.7806 13.6569C10.681 13.5573 10.625 13.4221 10.625 13.2812C10.625 13.1404 10.681 13.0052 10.7806 12.9056C10.8802 12.806 11.0154 12.75 11.1562 12.75C11.2971 12.75 11.4323 12.806 11.5319 12.9056C11.6315 13.0052 11.6875 13.1404 11.6875 13.2812C11.6875 13.4221 11.6315 13.5573 11.5319 13.6569C11.4323 13.7565 11.2971 13.8125 11.1562 13.8125Z" fill="black"/>
</svg>
