<svg width="38" height="34" viewBox="0 0 38 34" fill="none" xmlns="http://www.w3.org/2000/svg">
<rect width="38" height="34" rx="12" fill="#D9D9D9"/>
<g clip-path="url(#clip0_6_29)">
<path d="M11.224 5C10.3935 4.99999 9.59677 5.32903 9.00828 5.91508C8.41979 6.50114 8.08745 7.29648 8.08401 8.127C8.08266 8.57498 8.17842 9.01792 8.36469 9.42533C8.55096 9.83275 8.82332 10.195 9.16301 10.487C7.83345 12.4456 7.12371 14.7588 7.12601 17.126C7.12601 23.68 12.458 29 19 29C25.542 29 30.874 23.68 30.874 17.126C30.881 14.7676 30.1752 12.4622 28.849 10.512C29.1903 10.2178 29.4643 9.85364 29.6524 9.44419C29.8405 9.03473 29.9382 8.58959 29.939 8.139C29.9386 7.72746 29.8571 7.32003 29.699 6.94004C29.541 6.56005 29.3096 6.21496 29.018 5.92451C28.7265 5.63406 28.3805 5.40396 27.9999 5.24738C27.6193 5.0908 27.2116 5.01082 26.8 5.012C26.2751 5.01062 25.7584 5.14168 25.2976 5.39304C24.8369 5.64439 24.447 6.00793 24.164 6.45C22.5585 5.6701 20.7969 5.26459 19.012 5.264C17.228 5.26085 15.4665 5.66224 13.86 6.438C13.5764 5.99658 13.1863 5.63354 12.7257 5.38227C12.2651 5.13099 11.7487 4.99954 11.224 5ZM19 6.198C20.713 6.198 22.331 6.594 23.78 7.3C25.5103 8.1418 26.9896 9.42276 28.07 11.015C29.2988 12.8248 29.9545 14.9625 29.952 17.15C29.963 23.189 25.051 28.101 19.012 28.101C12.972 28.101 8.06101 23.189 8.06101 17.15C8.06101 14.873 8.75501 12.764 9.94101 11.015C11.0252 9.42573 12.5039 8.14555 14.232 7.3C15.7161 6.57268 17.3473 6.19567 19 6.198ZM14.367 11.345C13.514 11.357 12.624 11.637 12.087 11.998C11.056 12.68 9.79701 14.154 10.002 16.179C10.193 18.204 11.787 19.462 12.614 19.462C13.44 19.462 13.848 19.042 14.099 18.012C14.351 16.994 15.214 15.82 16.316 14.562C17.418 13.304 16.292 12.093 16.292 12.093C15.899 11.58 15.24 11.366 14.537 11.346L14.367 11.345ZM23.6 11.352L23.43 11.353C22.728 11.373 22.072 11.586 21.684 12.105C21.684 12.105 20.558 13.315 21.66 14.574C22.774 15.832 23.625 17.006 23.877 18.024C24.128 19.043 24.536 19.462 25.362 19.474C26.189 19.474 27.771 18.216 27.974 16.191C28.177 14.166 26.92 12.681 25.89 12.009C25.346 11.649 24.453 11.366 23.6 11.352ZM14.638 13.352C14.986 13.352 15.262 13.627 15.262 13.975C15.25 14.31 14.974 14.598 14.638 14.598C14.5561 14.5984 14.4749 14.5826 14.3991 14.5514C14.3234 14.5202 14.2545 14.4743 14.1966 14.4164C14.1387 14.3585 14.0928 14.2896 14.0616 14.2139C14.0305 14.1381 14.0146 14.0569 14.015 13.975C14.0145 13.893 14.0302 13.8117 14.0613 13.7358C14.0924 13.6599 14.1383 13.591 14.1962 13.5329C14.2542 13.4749 14.3231 13.4289 14.3989 13.3977C14.4747 13.3665 14.556 13.3506 14.638 13.351V13.352ZM23.529 13.352C23.877 13.352 24.152 13.627 24.152 13.975C24.14 14.31 23.865 14.598 23.529 14.598C23.4471 14.5984 23.3659 14.5826 23.2901 14.5514C23.2144 14.5202 23.1455 14.4743 23.0876 14.4164C23.0297 14.3585 22.9838 14.2896 22.9526 14.2139C22.9215 14.1381 22.9056 14.0569 22.906 13.975C22.906 13.627 23.194 13.351 23.529 13.351V13.352ZM18.988 17.377C18.461 17.377 16.928 17.473 16.928 17.964C16.928 18.851 18.808 19.486 18.988 19.438C19.168 19.486 21.048 18.851 21.048 17.964C21.048 17.474 19.528 17.377 18.988 17.377ZM16.076 20.17C16.076 21.584 17.37 22.734 18.988 22.734C20.606 22.734 21.912 21.584 21.912 20.17H16.076Z" fill="black"/>
</g>
<path d="M30.129 25.485C29.8572 25.2096 29.5336 24.9907 29.1767 24.841C28.8199 24.6914 28.4369 24.6139 28.05 24.613C27.48 24.613 26.909 24.825 26.595 25.034C25.944 25.468 25.409 25.938 24.446 27.182V28.076C25.263 27.012 26.036 26.173 26.623 25.712C27.009 25.402 27.556 25.211 28.05 25.211C29.325 25.211 30.402 26.288 30.402 27.563V28.101C30.402 28.731 30.155 29.324 29.704 29.769C29.2653 30.2075 28.6703 30.4539 28.05 30.454C27.002 30.454 26.08 29.735 25.83 28.753L25.408 29.263C25.715 30.293 26.825 31.052 28.05 31.052C28.4369 31.0511 28.8199 30.9736 29.1767 30.824C29.5336 30.6743 29.8572 30.4554 30.129 30.18C30.691 29.618 31 28.88 31 28.101V27.563C31 26.785 30.69 26.046 30.129 25.485ZM17.329 25.211C17.735 25.211 18.086 25.298 18.403 25.477C18.5308 25.3191 18.668 25.1692 18.814 25.028C18.479 24.772 17.911 24.613 17.329 24.613C16.499 24.613 15.745 24.913 15.207 25.456C14.673 25.996 14.377 26.743 14.377 27.563V31.052H14.975V27.562C14.975 26.177 15.943 25.211 17.329 25.211ZM23.007 31.05V27.562C23.007 26.49 22.167 25.649 21.094 25.649C20.594 25.649 20.118 25.852 19.751 26.219C19.5722 26.3943 19.4298 26.6031 19.332 26.8336C19.2341 27.0641 19.1828 27.3116 19.181 27.562V28.1C19.181 29.137 20.058 30.013 21.094 30.013C21.379 30.013 21.765 29.943 22.002 29.749V29.118C21.77 29.305 21.432 29.416 21.094 29.416C20.9207 29.418 20.7487 29.3853 20.5882 29.3199C20.4276 29.2545 20.2818 29.1576 20.1593 29.035C20.0368 28.9124 19.94 28.7665 19.8747 28.6059C19.8094 28.4453 19.7769 28.2733 19.779 28.1V27.562C19.7771 27.3888 19.8099 27.217 19.8753 27.0567C19.9407 26.8964 20.0375 26.7507 20.16 26.6283C20.2825 26.5059 20.4283 26.4092 20.5886 26.3439C20.749 26.2786 20.9208 26.246 21.094 26.248C21.2672 26.2459 21.4392 26.2784 21.5997 26.3436C21.7602 26.4089 21.906 26.5055 22.0286 26.628C22.1512 26.7504 22.2481 26.8961 22.3136 27.0565C22.3791 27.2169 22.4119 27.3888 22.41 27.562V31.051L23.007 31.05ZM7 27.218V27.411C7 28.447 7.393 29.414 8.107 30.133C8.45885 30.4877 8.87787 30.7687 9.33957 30.9597C9.80127 31.1506 10.2964 31.2476 10.796 31.245C11.616 31.245 12.344 31.059 12.958 30.694C13.464 30.392 13.688 30.087 13.708 30.059V26.842H10.65V27.439H13.11V29.873L13.108 29.875C12.82 30.163 12.136 30.645 10.796 30.645C10.3727 30.6487 9.95303 30.5676 9.56161 30.4065C9.1702 30.2454 8.81501 30.0076 8.517 29.707C7.91946 29.0926 7.5888 28.267 7.597 27.41V27.217C7.597 26.387 7.972 25.561 8.623 24.948C9.28399 24.3262 10.1575 23.9803 11.065 23.981C11.912 23.981 12.503 24.11 12.978 24.397V23.727C12.484 23.517 11.893 23.422 11.065 23.422C8.862 23.422 7 25.161 7 27.218ZM17.329 26.249C17.5563 26.249 17.7467 26.2863 17.9 26.361C17.975 26.175 18.051 26.022 18.162 25.836C18 25.72 17.613 25.65 17.329 25.65C16.239 25.65 15.416 26.473 15.416 27.563V31.052H16.014V27.562C16.014 26.788 16.554 26.249 17.329 26.249ZM12.978 25.546V24.839C12.437 24.549 11.847 24.42 11.065 24.42C10.266 24.42 9.51 24.713 8.933 25.244C8.356 25.776 8.038 26.477 8.038 27.216V27.409C8.038 28.951 9.275 30.205 10.796 30.205C12.033 30.205 12.541 29.8 12.67 29.672V27.878H10.65V28.476H12.11V29.375L12.105 29.376C11.918 29.451 11.527 29.607 10.795 29.607C10.5108 29.6083 10.2291 29.5527 9.9667 29.4435C9.70428 29.3343 9.46637 29.1736 9.267 28.971C9.06418 28.7649 8.90397 28.5209 8.79553 28.2529C8.68709 27.9849 8.63254 27.6981 8.635 27.409V27.216C8.635 26.024 9.748 25.018 11.065 25.018C11.975 25.018 12.515 25.165 12.978 25.546ZM27.083 26.672C27.353 26.402 27.706 26.248 28.05 26.248C28.2232 26.246 28.395 26.2786 28.5554 26.3439C28.7157 26.4092 28.8615 26.5059 28.984 26.6283C29.1065 26.7507 29.2033 26.8964 29.2687 27.0567C29.3341 27.217 29.3669 27.3888 29.365 27.562V28.1C29.365 28.838 28.787 29.416 28.05 29.416C27.693 29.416 27.348 29.22 27.078 28.866C26.8356 28.5397 26.6907 28.1513 26.66 27.746L26.176 28.337C26.271 28.789 26.506 29.222 26.841 29.527C27.185 29.84 27.615 30.013 28.05 30.013C28.5572 30.0125 29.0435 29.8108 29.4021 29.4521C29.7608 29.0935 29.9625 28.6072 29.963 28.1V27.562C29.963 27.063 29.761 26.585 29.393 26.219C29.2177 26.0402 29.0089 25.8978 28.7784 25.8C28.5479 25.7021 28.3004 25.6508 28.05 25.649C27.734 25.649 27.232 25.763 26.633 26.301L26.631 26.303C26.471 26.463 26.095 26.839 25.866 27.107C25.482 27.527 24.923 28.161 24.446 28.795V29.728C24.975 29.048 25.279 28.668 25.776 28.094C26.221 27.575 26.772 26.944 27.083 26.672ZM18.144 28.1C18.144 28.879 18.454 29.617 19.016 30.18C19.2878 30.4549 19.6114 30.6734 19.968 30.8227C20.3247 30.972 20.7074 31.0493 21.094 31.05C21.424 31.05 21.763 30.98 22.002 30.862V30.265C21.7137 30.3837 21.4057 30.4475 21.094 30.453C19.82 30.453 18.742 29.376 18.742 28.1V27.562C18.742 26.287 19.82 25.21 21.094 25.21C21.4035 25.2083 21.7102 25.268 21.9965 25.3856C22.2827 25.5032 22.5428 25.6765 22.7617 25.8953C22.9805 26.1142 23.1538 26.3743 23.2714 26.6605C23.389 26.9468 23.4487 27.2535 23.447 27.563V31.051H24.045V27.447C24.0077 26.6859 23.6802 25.9681 23.13 25.441C22.5854 24.9096 21.8549 24.6118 21.094 24.611C20.316 24.611 19.578 24.921 19.016 25.484C18.7407 25.7557 18.5219 26.0792 18.3722 26.4358C18.2226 26.7925 18.145 27.1752 18.144 27.562V28.1ZM25.062 25.787C25.242 25.5598 25.4414 25.3487 25.658 25.156V22H25.062V25.787ZM26.099 24.911V22H26.696V24.502C26.4837 24.6183 26.2837 24.7556 26.099 24.912" fill="#808080"/>
<defs>
<clipPath id="clip0_6_29">
<rect width="24" height="24" fill="white" transform="translate(7 5)"/>
</clipPath>
</defs>
</svg>
