<svg width="17" height="17" viewBox="0 0 17 17" fill="none" xmlns="http://www.w3.org/2000/svg">
<path fill-rule="evenodd" clip-rule="evenodd" d="M5.66667 4.95833C5.66667 4.20689 5.96518 3.48622 6.49653 2.95486C7.02788 2.42351 7.74855 2.125 8.5 2.125C9.25145 2.125 9.97212 2.42351 10.5035 2.95486C11.0348 3.48622 11.3333 4.20689 11.3333 4.95833C11.3333 5.70978 11.0348 6.43045 10.5035 6.9618C9.97212 7.49316 9.25145 7.79167 8.5 7.79167C7.74855 7.79167 7.02788 7.49316 6.49653 6.9618C5.96518 6.43045 5.66667 5.70978 5.66667 4.95833ZM5.66667 9.20833C4.72736 9.20833 3.82652 9.58147 3.16233 10.2457C2.49814 10.9099 2.125 11.8107 2.125 12.75C2.125 13.3136 2.34888 13.8541 2.7474 14.2526C3.14591 14.6511 3.68641 14.875 4.25 14.875H12.75C13.3136 14.875 13.8541 14.6511 14.2526 14.2526C14.6511 13.8541 14.875 13.3136 14.875 12.75C14.875 11.8107 14.5019 10.9099 13.8377 10.2457C13.1735 9.58147 12.2726 9.20833 11.3333 9.20833H5.66667Z" fill="black"/>
</svg>
